<svg width="256" height="256" viewBox="0 0 256 256" fill="none" xmlns="http://www.w3.org/2000/svg">
<rect width="256" height="256" fill="#EC1D24"/>
<path opacity="0.5" d="M189.222 142.059V149.965H174.58V106H182.465V142.059H189.222ZM126.658 127.559C126.048 127.853 125.41 127.999 124.788 128.001V113.861H124.828C125.45 113.856 130.092 114.045 130.092 120.854C130.092 124.413 128.512 126.658 126.658 127.559ZM103.55 136.24L105.733 117.441L107.998 136.24H103.55ZM173.205 114.025V106.007H150.879L147.204 132.786L143.574 106.006H135.522L136.423 113.156C135.495 111.324 132.199 106.006 124.943 106.006C124.896 106.004 116.883 106.006 116.883 106.006L116.852 145.038L110.984 106.007L100.439 106.002L94.367 146.442L94.369 106.007H84.278L80.64 128.724L77.096 106.006H67V149.972H74.95V128.78L78.568 149.972H82.794L86.359 128.78V149.972H101.686L102.614 143.21H108.784L109.711 149.972L124.758 149.98H124.768V149.972H124.788V135.702L126.633 135.432L130.45 149.982H138.234L138.232 149.972H138.254L133.243 132.924C135.781 131.044 138.649 126.28 137.886 121.721V121.719C137.894 121.777 142.615 150 142.615 150L151.871 149.973L158.198 110.123V149.973H173.205V142.065H166.081V131.985H173.205V123.955H166.081V114.024L173.205 114.025Z" fill="#FEFEFE"/>
<path opacity="0.5" d="M68.6058 154.273V163H67.549V154.273H68.6058ZM70.7248 154.273H71.9862L74.9521 161.517H75.0543L78.0202 154.273H79.2816V163H78.293V156.369H78.2077L75.4805 163H74.5259L71.7987 156.369H71.7134V163H70.7248V154.273ZM81.7585 163H80.6506L83.8551 154.273H84.946L88.1506 163H87.0426L84.4347 155.653H84.3665L81.7585 163ZM82.1676 159.591H86.6335V160.528H82.1676V159.591ZM95.0657 157C94.9719 156.713 94.8484 156.456 94.695 156.229C94.5444 155.999 94.364 155.803 94.1538 155.641C93.9464 155.479 93.7106 155.355 93.4464 155.27C93.1822 155.185 92.8924 155.142 92.5771 155.142C92.06 155.142 91.5898 155.276 91.1665 155.543C90.7433 155.81 90.4066 156.203 90.1566 156.723C89.9066 157.243 89.7816 157.881 89.7816 158.636C89.7816 159.392 89.908 160.03 90.1609 160.55C90.4137 161.07 90.756 161.463 91.1879 161.73C91.6197 161.997 92.1055 162.131 92.6452 162.131C93.1452 162.131 93.5856 162.024 93.9663 161.811C94.3498 161.595 94.6481 161.291 94.8612 160.899C95.0771 160.504 95.185 160.04 95.185 159.506L95.5089 159.574H92.8839V158.636H96.2077V159.574C96.2077 160.293 96.0543 160.918 95.7475 161.449C95.4435 161.98 95.0231 162.392 94.4862 162.685C93.9521 162.974 93.3384 163.119 92.6452 163.119C91.8725 163.119 91.1935 162.938 90.6083 162.574C90.0259 162.21 89.5714 161.693 89.2447 161.023C88.9208 160.352 88.7589 159.557 88.7589 158.636C88.7589 157.946 88.8512 157.325 89.0359 156.774C89.2234 156.22 89.4876 155.749 89.8285 155.359C90.1694 154.97 90.5728 154.672 91.0387 154.464C91.5046 154.257 92.0174 154.153 92.5771 154.153C93.0373 154.153 93.4663 154.223 93.864 154.362C94.2646 154.499 94.6211 154.693 94.9336 154.946C95.2489 155.196 95.5117 155.496 95.7219 155.845C95.9322 156.192 96.0771 156.577 96.1566 157H95.0657ZM98.0178 163V154.273H103.285V155.21H99.0746V158.159H103.012V159.097H99.0746V162.062H103.353V163H98.0178ZM114.292 154.273H115.349V160.051C115.349 160.648 115.208 161.18 114.927 161.649C114.648 162.115 114.255 162.483 113.746 162.753C113.238 163.02 112.641 163.153 111.957 163.153C111.272 163.153 110.675 163.02 110.167 162.753C109.658 162.483 109.263 162.115 108.982 161.649C108.704 161.18 108.565 160.648 108.565 160.051V154.273H109.621V159.966C109.621 160.392 109.715 160.771 109.903 161.104C110.09 161.433 110.357 161.693 110.704 161.884C111.053 162.071 111.471 162.165 111.957 162.165C112.442 162.165 112.86 162.071 113.21 161.884C113.559 161.693 113.826 161.433 114.011 161.104C114.198 160.771 114.292 160.392 114.292 159.966V154.273ZM124.38 154.273V163H123.357L118.601 156.148H118.516V163H117.459V154.273H118.482L123.255 161.142H123.34V154.273H124.38ZM126.852 163H125.744L128.949 154.273H130.04L133.244 163H132.136L129.528 155.653H129.46L126.852 163ZM127.261 159.591H131.727V160.528H127.261V159.591ZM134.141 154.273L136.732 161.619H136.835L139.425 154.273H140.533L137.329 163H136.238L133.033 154.273H134.141ZM141.501 163H140.393L143.597 154.273H144.688L147.893 163H146.785L144.177 155.653H144.109L141.501 163ZM141.91 159.591H146.376V160.528H141.91V159.591ZM150.309 154.273V163H149.252V154.273H150.309ZM152.428 163V154.273H153.485V162.062H157.542V163H152.428ZM160.087 163H158.979L162.183 154.273H163.274L166.479 163H165.371L162.763 155.653H162.695L160.087 163ZM160.496 159.591H164.962V160.528H160.496V159.591ZM167.838 163V154.273H170.889C171.497 154.273 171.999 154.378 172.393 154.588C172.788 154.795 173.082 155.075 173.276 155.428C173.469 155.777 173.565 156.165 173.565 156.591C173.565 156.966 173.499 157.276 173.365 157.52C173.234 157.764 173.061 157.957 172.845 158.099C172.632 158.241 172.401 158.347 172.151 158.415V158.5C172.418 158.517 172.686 158.611 172.956 158.781C173.226 158.952 173.452 159.196 173.634 159.514C173.815 159.832 173.906 160.222 173.906 160.682C173.906 161.119 173.807 161.513 173.608 161.862C173.409 162.212 173.095 162.489 172.666 162.693C172.237 162.898 171.679 163 170.991 163H167.838ZM168.895 162.062H170.991C171.682 162.062 172.172 161.929 172.462 161.662C172.754 161.392 172.901 161.065 172.901 160.682C172.901 160.386 172.825 160.114 172.675 159.864C172.524 159.611 172.31 159.409 172.031 159.259C171.753 159.105 171.423 159.028 171.043 159.028H168.895V162.062ZM168.895 158.108H170.855C171.173 158.108 171.46 158.045 171.716 157.92C171.974 157.795 172.179 157.619 172.33 157.392C172.483 157.165 172.56 156.898 172.56 156.591C172.56 156.207 172.426 155.882 172.159 155.615C171.892 155.345 171.469 155.21 170.889 155.21H168.895V158.108ZM175.643 163V154.273H176.7V162.062H180.756V163H175.643ZM182.393 163V154.273H187.66V155.21H183.45V158.159H187.387V159.097H183.45V162.062H187.728V163H182.393Z" fill="white"/>
</svg>
